<svg width="18" height="18" viewBox="0 0 18 18" fill="none" xmlns="http://www.w3.org/2000/svg">
<path d="M16.4775 13.7485C16.4775 14.0185 16.4175 14.296 16.29 14.566C16.1625 14.836 15.9975 15.091 15.78 15.331C15.4125 15.736 15.0075 16.0285 14.55 16.216C14.1 16.4035 13.6125 16.501 13.0875 16.501C12.3225 16.501 11.505 16.321 10.6425 15.9535C9.78 15.586 8.9175 15.091 8.0625 14.4685C7.2 13.8385 6.3825 13.141 5.6025 12.3685C4.83 11.5885 4.1325 10.771 3.51 9.91598C2.895 9.06098 2.4 8.20598 2.04 7.35848C1.68 6.50348 1.5 5.68598 1.5 4.90598C1.5 4.39598 1.59 3.90848 1.77 3.45848C1.95 3.00098 2.235 2.58098 2.6325 2.20598C3.1125 1.73348 3.6375 1.50098 4.1925 1.50098C4.4025 1.50098 4.6125 1.54598 4.8 1.63598C4.995 1.72598 5.1675 1.86098 5.3025 2.05598L7.0425 4.50848C7.1775 4.69598 7.275 4.86848 7.3425 5.03348C7.41 5.19098 7.4475 5.34848 7.4475 5.49098C7.4475 5.67098 7.395 5.85098 7.29 6.02348C7.1925 6.19598 7.05 6.37598 6.87 6.55598L6.3 7.14848C6.2175 7.23098 6.18 7.32848 6.18 7.44848C6.18 7.50848 6.1875 7.56098 6.2025 7.62098C6.225 7.68098 6.2475 7.72598 6.2625 7.77098C6.3975 8.01848 6.63 8.34098 6.96 8.73098C7.2975 9.12098 7.6575 9.51848 8.0475 9.91598C8.4525 10.3135 8.8425 10.681 9.24 11.0185C9.63 11.3485 9.9525 11.5735 10.2075 11.7085C10.245 11.7235 10.29 11.746 10.3425 11.7685C10.4025 11.791 10.4625 11.7985 10.53 11.7985C10.6575 11.7985 10.755 11.7535 10.8375 11.671L11.4075 11.1085C11.595 10.921 11.775 10.7785 11.9475 10.6885C12.12 10.5835 12.2925 10.531 12.48 10.531C12.6225 10.531 12.7725 10.561 12.9375 10.6285C13.1025 10.696 13.275 10.7935 13.4625 10.921L15.945 12.6835C16.14 12.8185 16.275 12.976 16.3575 13.1635C16.4325 13.351 16.4775 13.5385 16.4775 13.7485Z" fill="white"/>
</svg>
