<svg width="18" height="18" viewBox="0 0 18 18" fill="none" xmlns="http://www.w3.org/2000/svg">
<path fill-rule="evenodd" clip-rule="evenodd" d="M2.57129 5.09532C2.57129 4.33452 3.18804 3.71777 3.94884 3.71777H14.0509C14.8117 3.71777 15.4284 4.33452 15.4284 5.09532V5.40936L9.35196 9.46106C9.26626 9.51616 9.14186 9.5555 8.99985 9.5555C8.85785 9.5555 8.73345 9.51616 8.64775 9.46106L2.57129 5.40937V5.09532ZM2.57129 6.78912V12.9014C2.57129 13.6622 3.18804 14.279 3.94884 14.279H14.0509C14.8117 14.279 15.4284 13.6622 15.4284 12.9014V6.78911L9.98564 10.4183L9.98035 10.4218C9.69138 10.6099 9.34437 10.7035 8.99985 10.7035C8.65534 10.7035 8.30835 10.6099 8.01938 10.4218L8.01406 10.4183L2.57129 6.78912Z" fill="white"/>
</svg>
