<svg width="18" height="18" viewBox="0 0 18 18" fill="none" xmlns="http://www.w3.org/2000/svg">
<path d="M12.18 1.49902H5.82C3.75 1.49902 3 2.24902 3 4.35652V13.6415C3 15.749 3.75 16.499 5.82 16.499H12.1725C14.25 16.499 15 15.749 15 13.6415V4.35652C15 2.24902 14.25 1.49902 12.18 1.49902ZM9 14.474C8.28 14.474 7.6875 13.8815 7.6875 13.1615C7.6875 12.4415 8.28 11.849 9 11.849C9.72 11.849 10.3125 12.4415 10.3125 13.1615C10.3125 13.8815 9.72 14.474 9 14.474ZM10.5 4.68652H7.5C7.1925 4.68652 6.9375 4.43152 6.9375 4.12402C6.9375 3.81652 7.1925 3.56152 7.5 3.56152H10.5C10.8075 3.56152 11.0625 3.81652 11.0625 4.12402C11.0625 4.43152 10.8075 4.68652 10.5 4.68652Z" fill="white"/>
</svg>
