<svg width="17" height="17" viewBox="0 0 17 17" fill="none" xmlns="http://www.w3.org/2000/svg">
<path d="M15.9958 6.08275C15.9406 5.90463 15.7938 5.77481 15.617 5.74792L10.6511 4.99144L8.43023 0.274223C8.3512 0.106298 8.18804 0 8.00942 0C7.83078 0 7.66765 0.106298 7.58859 0.274223L5.36761 4.99144L0.401809 5.74792C0.225072 5.77481 0.078181 5.90463 0.0229915 6.08272C-0.0322293 6.26085 0.0138245 6.45635 0.141755 6.58705L3.73496 10.2589L2.88684 15.4437C2.85662 15.6283 2.92901 15.8148 3.07353 15.9249C3.15528 15.9871 3.25211 16.0188 3.34941 16.0188C3.42412 16.0188 3.49909 16.0001 3.56773 15.9623L8.00939 13.5143L12.4509 15.9623C12.609 16.0494 12.8006 16.0349 12.9451 15.9248C13.0896 15.8148 13.162 15.6282 13.1318 15.4436L12.2834 10.2589L15.8771 6.58702C16.005 6.45635 16.051 6.26085 15.9958 6.08275Z" fill="#FFC62A"/>
</svg>
