<svg width="18" height="17" viewBox="0 0 18 17" fill="none" xmlns="http://www.w3.org/2000/svg">
<path d="M17.6463 12.6011C15.24 12.2051 14.1555 9.74025 14.1116 9.63562L14.1015 9.61537C13.9788 9.36563 13.9496 9.15975 14.0171 9.00338C14.1487 8.69513 14.6527 8.53537 14.9857 8.42962C15.0825 8.39925 15.1736 8.37 15.249 8.34075C15.5775 8.21138 15.8115 8.07075 15.9667 7.91213C16.1512 7.722 16.1872 7.53975 16.185 7.42163C16.1793 7.13363 15.9588 6.87712 15.6067 6.75225C15.4822 6.70265 15.3493 6.67744 15.2152 6.678C15.0898 6.67624 14.9655 6.70157 14.8507 6.75225C14.5695 6.88387 14.3175 6.95587 14.1003 6.966C14.0148 6.9636 13.9305 6.94529 13.8517 6.912L13.8731 6.56437L13.8765 6.51263C13.9541 5.29425 14.0497 3.77888 13.647 2.87888C13.3878 2.28576 13.0134 1.75002 12.5456 1.30275C12.1597 0.939625 11.714 0.645814 11.2282 0.43425C10.5797 0.151319 9.88036 0.00356017 9.17284 0L9.12784 0L8.81847 0.003375C8.41909 0.003375 7.61922 0.059625 6.76084 0.437625C6.27645 0.648844 5.83227 0.942299 5.44796 1.305C4.98241 1.75196 4.60966 2.28643 4.35109 2.87775C3.94834 3.77663 4.04396 5.292 4.12046 6.50925V6.5115L4.14522 6.91088C4.05192 6.94973 3.95149 6.96851 3.85047 6.966C3.62321 6.966 3.35321 6.894 3.04834 6.75112C2.95253 6.70814 2.84847 6.68664 2.74346 6.68813C2.5537 6.69006 2.36781 6.74206 2.20459 6.83887C1.99534 6.9615 1.86034 7.13363 1.82321 7.326C1.79959 7.452 1.80071 7.70288 2.07971 7.95712C2.23384 8.09663 2.45884 8.226 2.75021 8.34075C2.82671 8.37113 2.91784 8.39925 3.01346 8.42962C3.34646 8.53537 3.85159 8.69513 3.98321 9.00338C4.04959 9.15975 4.02034 9.36563 3.89771 9.61537L3.88871 9.63562C3.65376 10.1431 3.34852 10.615 2.98196 11.0374C2.66571 11.41 2.29743 11.7351 1.88846 12.0026C1.42327 12.3055 0.900439 12.5089 0.35284 12.6C0.250233 12.6165 0.157415 12.6706 0.0923631 12.7516C0.0273109 12.8327 -0.00534682 12.935 0.00071478 13.0387C0.00408978 13.1006 0.0187148 13.1625 0.0445898 13.2221V13.2232C0.131215 13.4246 0.33034 13.5945 0.65434 13.7441C1.05034 13.9275 1.64209 14.0816 2.41496 14.202C2.45434 14.2762 2.49484 14.4619 2.52296 14.589C2.55221 14.724 2.58259 14.8635 2.62646 15.0109C2.67371 15.1706 2.79521 15.3619 3.10909 15.3619C3.22834 15.3619 3.36446 15.3349 3.52309 15.3045C3.75484 15.2595 4.07209 15.1976 4.46696 15.1976C4.68634 15.1976 4.91359 15.2168 5.14196 15.255C5.58296 15.3281 5.96321 15.5959 6.40309 15.9064C7.04659 16.3609 7.77559 16.875 8.88934 16.875L8.98046 16.8716C9.01646 16.8739 9.06259 16.875 9.10984 16.875C10.2236 16.875 10.9526 16.3609 11.5961 15.9075L11.5972 15.9064C12.0371 15.597 12.4173 15.3292 12.8583 15.2561C13.0867 15.2179 13.314 15.1988 13.5333 15.1988C13.9113 15.1988 14.2106 15.2471 14.4772 15.2989C14.6516 15.3326 14.7866 15.3495 14.8912 15.3495H14.9115C15.0166 15.3542 15.12 15.3223 15.2043 15.2594C15.2886 15.1964 15.3485 15.1062 15.3738 15.0041C15.4134 14.8659 15.4479 14.7263 15.4773 14.5856C15.5032 14.4664 15.546 14.2751 15.5842 14.2009C16.3571 14.0794 16.9488 13.9264 17.3448 13.743C17.6677 13.5934 17.8668 13.4235 17.9535 13.2232C17.9795 13.1646 17.9947 13.1017 17.9985 13.0376C18.0042 12.9342 17.9714 12.8323 17.9063 12.7517C17.8413 12.671 17.7486 12.6174 17.6463 12.6011Z" fill="white"/>
</svg>
